<?xml version="1.0" standalone="no"?>
<!DOCTYPE svg PUBLIC "-//W3C//DTD SVG 20010904//EN"
        "http://www.w3.org/TR/2001/REC-SVG-20010904/DTD/svg10.dtd">
<svg version="1.0" xmlns="http://www.w3.org/2000/svg"
     width="1536.000000pt" height="1536.000000pt" viewBox="0 0 1536.000000 1536.000000"
     preserveAspectRatio="xMidYMid meet">
    <g transform="translate(0.000000,1536.000000) scale(0.100000,-0.100000)"
       fill="#000000" stroke="none">
        <path d="M0 7680 l0 -7680 7680 0 7680 0 0 7680 0 7680 -7680 0 -7680 0 0
-7680z m9736 5794 c45 -20 81 -28 149 -31 71 -4 99 -10 132 -29 38 -22 52 -24
183 -24 110 0 174 6 282 26 l139 25 532 -3 532 -3 52 -29 52 -28 153 11 c84 6
203 18 263 26 70 10 213 16 390 17 251 2 286 0 339 -17 56 -18 62 -18 145 -2
51 10 170 19 291 22 149 5 218 11 253 23 40 13 55 14 93 4 110 -29 132 -49
158 -135 14 -47 14 -48 -12 -73 -38 -36 -68 -49 -138 -63 -152 -29 -264 -80
-364 -167 -41 -35 -93 -68 -230 -147 -59 -34 -88 -61 -137 -127 -42 -57 -101
-115 -150 -147 -32 -21 -48 -33 -152 -123 -42 -35 -83 -73 -91 -85 -36 -51
-125 -135 -158 -150 -128 -58 -176 -89 -267 -176 -106 -102 -123 -114 -255
-184 -131 -70 -147 -84 -184 -160 -14 -28 -34 -59 -46 -70 -34 -30 -46 -62
-60 -158 -15 -99 -12 -97 -115 -94 -33 0 -72 -2 -87 -6 -25 -7 -28 -5 -28 18
0 30 -15 32 -53 6 -18 -11 -25 -21 -18 -25 16 -10 13 -26 -5 -26 -8 0 -13 -4
-10 -9 7 -10 -157 -111 -224 -137 -78 -31 -165 -88 -297 -196 -78 -63 -114
-105 -162 -190 -17 -31 -37 -58 -43 -60 -6 -2 -11 -23 -11 -45 l0 -42 -59 52
c-42 36 -63 48 -72 42 -7 -6 -31 -22 -52 -36 -45 -30 -101 -91 -114 -123 -5
-11 -11 -37 -15 -56 -6 -35 -54 -97 -97 -123 -13 -8 -52 -15 -91 -16 -85 -1
-126 -21 -127 -59 0 -10 6 -10 28 1 39 21 128 35 147 24 14 -7 7 -14 -35 -33
-29 -13 -57 -24 -62 -24 -6 0 -43 -25 -83 -54 -75 -57 -109 -75 -185 -97 -79
-24 -108 -79 -53 -100 32 -12 43 -26 43 -57 0 -22 42 -48 59 -37 4 2 23 -11
41 -30 19 -19 28 -35 21 -35 -11 0 -11 -3 -1 -15 6 -8 9 -18 6 -23 -9 -15 20
-34 55 -37 17 -2 41 -13 53 -25 l21 -22 -22 11 c-12 6 -23 8 -26 3 -2 -4 -2
-2 -1 5 2 7 -2 15 -9 19 -7 4 -9 4 -5 -1 4 -4 3 -14 -2 -20 -6 -7 -7 -26 -4
-43 5 -25 10 -30 22 -23 16 9 43 -12 55 -42 3 -9 12 -17 20 -17 22 0 18 -44
-7 -62 -21 -15 -25 -15 -74 18 -37 25 -49 39 -45 51 4 10 2 14 -5 9 -6 -3 -13
-2 -17 4 -3 5 -18 10 -32 10 -21 0 -24 4 -20 21 9 35 -12 74 -66 121 -76 65
-110 79 -208 85 -101 7 -119 -1 -147 -58 l-21 -42 32 -38 c18 -20 37 -38 44
-38 35 -3 18 -51 -17 -51 -13 0 -30 -24 -57 -77 -20 -43 -48 -95 -61 -115 -27
-42 -23 -54 24 -74 32 -14 38 -23 35 -51 -1 -7 5 -13 13 -13 25 0 205 49 239
65 18 8 48 16 68 18 49 5 192 -11 199 -22 3 -5 32 -20 65 -34 50 -21 61 -23
68 -11 4 8 6 18 3 23 -3 5 3 20 15 34 19 25 19 28 4 57 -9 17 -13 35 -10 40 4
6 -1 18 -10 27 -13 13 -14 18 -3 24 10 7 10 9 -1 9 -8 0 -11 3 -8 6 4 4 13 1
22 -6 8 -7 15 -9 15 -5 0 4 15 -4 34 -19 19 -14 39 -26 45 -26 6 0 11 -3 11
-8 0 -10 62 -37 78 -34 6 2 12 -3 12 -10 0 -8 9 -20 20 -28 11 -8 23 -29 26
-47 3 -18 10 -33 15 -33 5 0 9 -11 9 -24 0 -27 37 -56 71 -56 18 0 20 -2 8
-16 -11 -14 -9 -15 27 -9 21 4 45 12 52 18 13 10 17 53 4 59 -4 2 -15 23 -25
47 -13 35 -14 47 -4 53 7 4 -13 8 -44 8 -38 0 -61 5 -69 15 -11 13 1 15 98 15
119 0 142 -4 142 -26 0 -8 7 -14 16 -14 64 0 68 -166 5 -200 -12 -6 -19 -15
-17 -19 6 -10 -75 -21 -150 -21 -73 0 -77 -20 -14 -67 56 -42 62 -59 25 -73
-14 -5 -25 -16 -25 -24 0 -18 -23 -15 -47 6 -10 8 -32 23 -49 33 -38 22 -35
43 9 70 l32 19 -30 4 c-16 2 -34 7 -40 12 -5 4 -22 10 -37 14 -24 5 -27 11
-26 46 1 50 -24 80 -65 80 -17 0 -46 5 -64 12 -27 10 -38 10 -51 0 -9 -7 -28
-17 -41 -22 -14 -6 -35 -22 -47 -35 -23 -25 -26 -25 -191 -25 -92 -1 -213 -5
-268 -10 -55 -6 -138 -13 -185 -16 -81 -6 -140 -27 -228 -78 -23 -13 -62 -51
-62 -60 0 -16 62 -65 90 -71 48 -10 130 -54 157 -85 24 -27 32 -90 11 -90 -29
0 11 -14 168 -56 196 -53 362 -126 391 -171 9 -15 22 -31 27 -35 5 -3 11 -16
13 -29 2 -12 8 -27 13 -34 12 -15 -46 -78 -98 -104 -41 -21 -41 -21 -52 -2 -7
13 -7 28 0 46 11 30 9 36 -39 94 -33 40 -125 101 -152 101 -7 0 -29 11 -48 24
-56 38 -321 102 -389 94 -27 -3 -26 -3 11 -21 27 -13 50 -17 75 -13 27 5 33 4
22 -3 -13 -10 -7 -15 13 -12 4 0 7 -3 7 -9 0 -5 21 -21 48 -36 136 -77 332
-229 360 -281 7 -12 17 -23 22 -23 5 0 -13 -33 -41 -74 -46 -68 -55 -76 -110
-96 -53 -20 -72 -22 -167 -17 -59 3 -122 11 -140 17 -24 9 -36 9 -46 1 -8 -7
-18 -11 -22 -10 -5 1 -16 1 -24 0 -21 -2 85 -98 117 -106 16 -3 64 -30 108
-60 44 -29 85 -54 92 -56 29 -9 467 -355 566 -447 39 -37 95 -86 122 -109 91
-76 188 -173 180 -181 -4 -4 -10 -1 -12 6 -3 6 -10 12 -16 12 -21 1 -59 39
-51 51 5 9 1 10 -14 7 -11 -3 -31 2 -44 10 -13 9 -31 15 -41 14 -19 -4 -77 19
-77 29 0 10 -49 40 -71 44 -23 5 -25 -19 -4 -55 16 -29 20 -74 5 -65 -6 3 -13
-1 -16 -9 -3 -9 -10 -13 -15 -10 -5 3 -9 1 -9 -5 0 -5 5 -13 10 -16 6 -3 10
-16 10 -28 0 -19 -3 -17 -22 12 -13 19 -93 106 -178 193 -85 86 -193 201 -240
254 -98 111 -326 324 -347 324 -17 0 14 -58 70 -128 20 -26 55 -70 77 -98 43
-55 80 -144 80 -193 0 -45 -29 -72 -82 -78 -26 -3 -58 -3 -73 1 -25 6 -25 7
-10 36 8 16 15 39 15 52 0 35 -55 184 -79 214 -12 15 -21 30 -21 35 0 10 -125
130 -175 168 -39 29 -79 39 -101 23 -5 -4 -16 -22 -23 -40 -10 -24 -26 -38
-62 -54 -54 -22 -62 -45 -33 -86 19 -27 26 -62 13 -63 -5 -1 -15 -2 -21 -3 -7
-1 -19 2 -26 7 -25 19 -20 0 24 -98 84 -187 126 -334 127 -443 0 -66 -2 -75
-29 -105 -53 -58 -58 -74 -61 -207 -3 -134 -9 -169 -23 -135 -5 11 -9 33 -9
48 -1 16 -5 26 -9 23 -10 -6 -11 -3 -16 101 -2 45 -7 86 -10 91 -3 5 -27 17
-53 27 -26 10 -55 24 -64 31 -8 8 -31 19 -50 26 -19 6 -41 18 -49 27 -13 13
-15 12 -18 -6 -2 -11 -14 -31 -28 -44 l-26 -24 -23 28 c-13 15 -29 27 -35 27
-19 0 -22 -28 -5 -54 11 -16 19 -55 22 -108 4 -62 13 -98 33 -143 22 -48 29
-78 32 -153 3 -71 1 -92 -8 -88 -7 3 -18 -2 -25 -10 -10 -12 -9 -29 5 -86 13
-57 14 -73 4 -80 -18 -11 -28 -10 -28 3 0 5 -4 7 -10 4 -5 -3 -10 -1 -10 5 0
14 -31 9 -48 -7 -47 -45 -86 18 -76 124 8 95 -12 452 -44 763 -7 71 -32 140
-51 140 -5 0 -12 -11 -15 -25 -3 -13 -17 -41 -31 -61 -14 -20 -25 -48 -25 -63
0 -36 -32 -111 -47 -111 -9 0 -13 17 -13 50 0 29 -7 61 -15 74 -9 13 -14 28
-13 32 2 5 -1 10 -7 12 -15 5 -54 -212 -54 -303 -1 -108 -40 -257 -96 -371
-25 -50 -45 -95 -45 -101 0 -5 -11 -20 -25 -33 -14 -13 -25 -28 -25 -33 0 -20
-43 -67 -61 -67 -31 0 -23 31 32 132 78 143 90 188 155 586 8 48 -12 39 -25
-13 -6 -25 -15 -45 -19 -45 -4 0 -16 -17 -27 -37 -22 -42 -106 -133 -123 -133
-5 0 -13 15 -16 34 l-7 35 -52 -31 c-61 -37 -137 -88 -153 -103 -6 -6 -37 -19
-68 -30 -53 -18 -58 -18 -84 -3 -32 20 -88 107 -103 163 -6 22 -15 51 -21 65
l-10 25 -25 -30 c-62 -76 -85 -99 -98 -101 -20 -3 -29 28 -10 38 23 14 18 24
-19 35 -32 10 -36 8 -84 -36 -27 -25 -57 -60 -66 -78 -9 -18 -22 -36 -29 -40
-19 -12 -67 -80 -60 -86 3 -3 -9 -10 -26 -14 -27 -7 -36 -18 -55 -65 -35 -86
-65 -130 -137 -205 -36 -37 -85 -97 -109 -133 -24 -36 -79 -99 -122 -141 -43
-42 -78 -80 -79 -85 -1 -16 -184 -164 -188 -152 -2 6 7 21 20 32 13 12 30 34
37 50 20 44 -3 49 -42 10 -34 -34 -37 -34 -139 -26 -26 3 -118 97 -111 115 7
20 -33 30 -44 11 -9 -15 -52 -28 -52 -15 0 21 137 144 154 138 6 -2 31 13 56
33 25 21 72 52 105 71 164 90 312 211 484 392 l33 35 -66 -1 c-66 -2 -67 -2
-101 38 -19 22 -34 51 -35 64 0 14 -5 39 -12 58 -10 27 -9 42 4 84 17 51 17
51 -7 75 -13 13 -31 24 -39 24 -8 0 -16 5 -18 12 -3 7 -9 8 -19 2 -8 -4 -39
-7 -71 -5 -68 3 -90 -7 -146 -70 -27 -30 -54 -50 -75 -54 -18 -4 -41 -15 -52
-25 -11 -10 -32 -23 -46 -29 -31 -11 -89 -95 -89 -127 0 -13 -23 -49 -52 -84
-29 -34 -80 -98 -113 -143 l-60 -82 -110 -37 c-61 -20 -130 -37 -155 -38 -41
0 -103 -27 -101 -44 5 -37 -1 -56 -17 -56 -12 0 -27 -16 -41 -45 -13 -25 -35
-53 -49 -62 -15 -10 -48 -35 -73 -58 -25 -22 -110 -75 -188 -118 -77 -43 -147
-84 -154 -91 -7 -7 -31 -25 -55 -40 -23 -14 -42 -31 -42 -36 0 -21 -46 -50
-89 -56 -61 -9 -76 -18 -111 -66 -30 -40 -30 -41 -10 -55 11 -8 20 -18 20 -24
0 -5 -59 -9 -140 -9 l-140 0 0 -36 c0 -31 -9 -45 -59 -95 -46 -45 -83 -70
-164 -107 -57 -27 -120 -52 -139 -56 -43 -8 -68 -41 -68 -91 0 -29 -4 -35 -21
-35 -37 0 -59 -19 -59 -51 0 -23 6 -32 28 -40 15 -6 47 -23 72 -39 25 -16 70
-36 100 -44 30 -9 86 -25 125 -36 60 -17 98 -20 280 -20 190 0 220 2 311 25
94 23 119 25 375 26 158 1 316 7 374 14 198 26 253 28 308 8 47 -16 93 -18
472 -18 l420 0 42 28 c60 38 124 37 177 -3 l40 -30 166 0 c141 0 176 3 225 20
72 25 84 25 163 0 58 -18 92 -20 370 -20 169 0 313 4 321 9 8 5 11 16 7 28 -7
23 10 77 22 69 4 -2 9 -24 11 -48 1 -23 4 -45 7 -48 13 -12 144 0 191 19 45
18 54 18 89 6 48 -17 84 -19 84 -3 0 19 -50 118 -60 118 -5 0 -13 12 -17 28
-3 15 -15 41 -25 57 -10 17 -18 38 -18 48 0 10 -8 32 -17 50 -10 18 -27 57
-38 87 -26 71 -46 75 -69 16 -13 -34 -15 -50 -7 -65 15 -27 14 -56 -2 -70 -8
-6 -20 -29 -27 -52 -12 -36 -53 -79 -65 -68 -3 4 74 237 104 312 6 16 11 48
11 73 0 24 5 44 10 44 6 0 10 -7 10 -15 0 -9 8 -24 18 -35 20 -22 29 -39 111
-213 39 -83 61 -142 61 -165 0 -20 7 -46 15 -56 8 -11 15 -28 15 -39 0 -14 5
-17 16 -13 14 5 15 1 10 -28 -9 -46 1 -48 177 -45 78 1 225 1 327 1 182 -2
185 -2 195 -24 6 -13 17 -23 25 -23 10 0 16 -13 18 -41 5 -65 -12 -74 -240
-139 -94 -26 -218 -45 -300 -45 -42 0 -109 -6 -150 -14 -95 -18 -971 -14
-1023 5 -25 9 -43 9 -78 1 -28 -8 -137 -12 -281 -12 -129 0 -246 -4 -260 -10
-17 -6 -44 -6 -76 0 -66 12 -898 13 -1100 1 -117 -7 -168 -14 -208 -30 -47
-19 -74 -21 -239 -21 -179 0 -188 1 -227 24 -59 35 -116 40 -228 22 -152 -25
-174 -23 -254 27 l-69 42 -235 0 c-129 0 -307 -2 -395 -4 -88 -3 -214 -3 -280
-2 -95 2 -140 -2 -220 -20 -95 -21 -130 -22 -675 -29 -363 -5 -595 -12 -630
-19 -87 -18 -390 16 -515 58 -33 11 -79 21 -102 21 -23 0 -45 6 -50 13 -12 18
-6 166 8 183 10 13 14 13 29 -1 22 -20 31 -19 123 10 43 14 87 25 97 25 23 0
286 110 345 145 44 25 100 79 180 174 64 75 111 106 210 137 85 27 154 62 252
130 34 23 101 61 150 84 85 40 89 41 138 30 77 -18 123 1 144 60 24 68 107
144 186 170 69 23 96 46 100 85 4 32 28 55 58 55 14 0 30 7 37 15 7 8 27 17
46 21 24 4 42 17 62 45 15 21 37 40 50 44 25 6 30 30 7 39 -8 3 -15 13 -15 22
0 21 92 109 144 137 21 12 46 27 55 32 79 48 113 65 130 65 11 0 38 7 59 15
31 13 43 26 60 65 28 65 76 117 129 142 28 13 54 36 68 59 26 40 63 71 77 63
4 -3 8 5 8 17 0 12 14 37 30 56 17 18 30 38 30 44 0 6 4 8 9 5 5 -4 11 -1 13
6 5 14 24 -2 44 -37 25 -45 69 -45 123 1 25 21 31 33 31 65 0 28 -4 39 -15 39
-8 0 -15 2 -15 3 0 4 27 63 38 85 4 7 48 34 97 60 83 44 94 53 136 117 52 79
120 144 204 195 32 19 63 40 69 46 6 6 49 39 96 73 46 34 122 103 170 152 67
70 89 87 106 83 15 -4 32 6 65 38 24 25 64 56 89 70 54 31 95 73 109 111 6 15
17 27 26 27 18 0 20 17 3 22 -7 3 -20 -4 -29 -15 -9 -11 -21 -17 -27 -13 -23
14 13 60 139 181 34 32 28 66 -18 101 -42 32 -35 41 38 54 30 5 79 17 109 25
30 8 76 15 103 15 39 0 52 5 73 27 24 26 24 28 8 40 -10 7 -29 13 -44 13 -36
0 -154 34 -221 64 -86 38 -159 132 -159 205 0 47 19 79 52 86 37 9 42 3 31
-32 -18 -51 31 -139 101 -182 38 -24 148 -61 180 -61 11 0 41 -9 65 -20 60
-28 81 -26 81 6 0 41 -15 58 -97 112 -43 28 -109 80 -146 116 -37 36 -79 73
-92 82 -31 21 -31 24 5 77 45 67 113 125 156 133 35 6 139 2 287 -12 48 -5 67
-4 67 5 0 20 -53 72 -112 107 -32 20 -80 54 -107 78 -28 23 -83 58 -123 78
-40 20 -95 55 -121 78 -42 37 -47 46 -41 69 11 39 5 140 -10 170 -8 14 -28 39
-45 55 -39 38 -39 48 2 41 32 -5 66 -36 207 -191 90 -98 304 -284 328 -284 25
0 10 21 -79 114 -130 135 -160 181 -166 255 -6 61 7 98 29 85 5 -3 16 3 24 15
11 16 26 21 57 21 55 0 62 -7 63 -60 0 -25 4 -66 9 -92 4 -26 4 -55 0 -65 -21
-48 -28 -38 111 -173 54 -52 118 -117 143 -143 50 -53 105 -90 95 -62 -4 8 -1
15 6 15 8 0 11 9 8 25 -3 14 -1 25 3 25 5 0 9 7 9 15 0 8 3 14 8 13 26 -5 62
17 72 45 12 34 29 123 33 171 2 34 -28 61 -42 37 -13 -21 -51 4 -51 34 0 21 5
25 28 25 15 0 33 -5 40 -12 20 -20 15 7 -12 60 -46 93 -96 257 -101 332 -2 40
-6 75 -9 78 -10 9 -7 24 3 18 5 -3 12 6 15 20 8 29 54 104 75 120 13 10 13 14
-2 28 -20 20 -20 21 -6 47 7 15 7 24 -2 35 -17 20 -3 120 20 150 l19 24 9 -38
c5 -20 8 -57 7 -82 -2 -25 -1 -68 2 -96 6 -49 7 -51 51 -69 25 -11 62 -31 82
-45 42 -30 136 -80 151 -80 17 0 11 22 -11 41 -40 35 -5 47 69 24 24 -8 24 -7
17 51 -9 81 -43 239 -59 278 -7 17 -16 66 -20 107 -6 62 -4 82 10 112 10 21
25 37 35 37 28 0 42 25 29 50 -7 13 -9 37 -5 57 4 24 0 47 -13 76 -30 64 -43
127 -31 150 6 10 13 30 15 44 5 28 26 53 44 53 6 0 -1 11 -15 24 -18 17 -22
26 -13 29 9 4 8 6 -3 6 -9 1 -20 -9 -24 -21 l-8 -23 -4 23 c-6 28 -27 24 -31
-6 -2 -12 -8 -20 -13 -17 -5 4 -9 117 -8 268 0 144 4 253 8 242 5 -11 7 -22 6
-25 -2 -3 15 -13 39 -23 34 -14 52 -33 96 -100 30 -45 65 -95 77 -110 12 -15
25 -43 29 -63 5 -29 9 -33 21 -22 14 11 15 7 10 -27 -4 -22 -9 -80 -12 -130
-8 -115 -11 -125 -40 -125 -16 0 -25 7 -29 25 -4 17 -13 25 -27 25 -17 0 -20
-5 -17 -25 3 -14 1 -25 -6 -25 -6 0 -4 -5 4 -10 11 -7 8 -10 -16 -10 -29 0
-32 -3 -36 -34 -2 -19 -1 -33 3 -31 17 11 37 -36 44 -99 6 -59 11 -74 36 -97
35 -32 39 -77 9 -99 -26 -19 -25 -39 5 -74 14 -16 26 -46 29 -70 11 -87 15
-419 6 -437 -7 -13 -2 -32 20 -74 16 -31 35 -84 42 -118 11 -59 41 -117 51
-100 3 4 8 23 12 40 3 18 14 39 23 46 35 26 43 55 37 140 -6 76 -5 80 9 57 8
-14 21 -50 27 -80 7 -30 20 -65 30 -78 l18 -23 10 38 c6 21 11 50 11 65 0 15
5 39 10 54 6 15 12 85 13 155 3 125 3 129 39 201 20 40 44 93 53 118 10 25 28
70 41 100 12 30 26 66 30 80 3 14 15 33 25 43 11 10 19 24 19 31 0 7 13 24 29
38 l29 26 10 -22 c8 -18 1 -39 -37 -117 -113 -232 -136 -301 -161 -493 -11
-88 -19 -165 -16 -173 9 -23 24 -14 31 20 15 82 30 124 54 152 14 17 33 40 41
52 12 16 29 22 83 26 40 4 67 2 67 -3 0 -19 59 15 110 64 43 41 61 51 113 62
75 15 86 10 133 -63 20 -31 42 -63 50 -70 8 -8 14 -28 14 -44 0 -32 2 -34 33
-18 37 19 87 71 124 129 20 30 61 84 93 120 32 36 67 85 80 110 19 38 119 150
134 150 3 0 3 -7 0 -15 -4 -8 -9 -15 -13 -15 -16 0 -41 -65 -44 -117 -2 -26
-18 -48 -74 -105 -40 -41 -73 -76 -73 -79 0 -4 -16 -23 -35 -43 -39 -42 -43
-56 -18 -56 10 0 47 31 84 69 36 38 85 79 110 92 79 40 106 66 124 118 9 28
33 67 58 93 23 24 73 87 110 139 66 93 113 147 260 298 83 85 203 191 217 191
18 0 -7 -45 -36 -65 -35 -24 -38 -34 -17 -57 19 -21 10 -53 -12 -44 -9 3 -18
-1 -21 -8 -3 -8 -17 -17 -32 -21 -15 -4 -21 -10 -14 -12 15 -6 -32 -52 -81
-81 -30 -18 -123 -130 -114 -138 2 -3 17 9 33 27 100 109 236 218 307 246 49
20 92 65 83 88 -3 10 1 15 14 15 10 0 54 28 97 62 43 35 94 71 113 82 19 10
55 40 80 67 25 27 59 59 76 71 18 13 65 48 105 79 41 31 104 75 142 99 37 23
72 50 77 60 5 10 22 21 37 24 72 17 84 28 117 100 37 81 112 184 160 221 18
14 57 33 87 44 143 49 219 95 325 194 22 21 51 45 65 54 13 9 26 20 29 23 15
19 117 81 200 121 66 32 113 63 155 103 33 32 79 71 103 87 23 17 42 36 42 43
0 7 -28 34 -62 60 -90 66 -160 86 -346 94 -149 8 -153 8 -178 35 -29 32 -16
31 -274 27 -171 -2 -212 -5 -245 -20 -46 -20 -266 -56 -405 -66 -52 -3 -113
-13 -135 -20 -56 -19 -378 -20 -394 -1 -6 8 -30 22 -53 32 -24 10 -56 30 -71
44 -28 26 -30 26 -180 24 -138 -1 -159 -4 -232 -29 -79 -28 -82 -28 -355 -29
-275 -2 -275 -2 -360 -31 -73 -24 -100 -28 -190 -28 -60 1 -118 6 -135 14 -17
6 -93 14 -171 17 -120 4 -143 2 -157 -11 -22 -22 -35 -20 -39 6 -2 14 -13 25
-28 29 -42 12 -231 -2 -305 -22 -38 -11 -103 -22 -142 -26 -66 -5 -78 -3 -135
23 -53 24 -76 28 -148 29 -70 0 -94 -4 -135 -25 -41 -20 -73 -26 -170 -32 -86
-5 -137 -13 -180 -30 -52 -19 -87 -23 -275 -29 -118 -4 -229 -10 -246 -14 -41
-9 -87 29 -110 93 -10 26 -26 56 -36 68 -10 11 -18 23 -18 27 0 21 76 107 117
134 49 32 50 32 243 42 107 6 244 11 303 11 67 0 133 6 174 17 61 15 89 15
312 3 135 -7 561 -15 946 -19 l700 -6 38 -23 c61 -36 106 -42 199 -26 46 8 97
19 113 25 17 6 113 15 214 19 175 8 186 10 240 38 54 28 61 29 207 31 144 1
155 0 210 -25z m-5239 -107 c4 -5 8 -79 8 -165 1 -134 4 -167 22 -222 15 -44
21 -85 20 -127 -2 -53 -7 -67 -35 -100 -17 -21 -48 -63 -69 -93 l-38 -55 -5
30 c-6 32 -38 55 -81 55 -53 0 -277 -163 -388 -284 -19 -20 -34 -26 -65 -26
-76 -1 -180 -36 -372 -126 -28 -13 -59 -24 -70 -24 -10 0 -46 -13 -80 -29 -47
-22 -71 -42 -105 -87 -24 -33 -86 -99 -137 -148 -52 -50 -104 -108 -117 -130
-46 -78 -102 -121 -200 -154 -255 -85 -317 -102 -369 -102 -79 0 -208 19 -231
35 -12 7 -35 42 -53 79 -22 45 -41 70 -62 81 -32 17 -42 57 -17 72 20 12 55
78 72 136 21 72 93 187 134 214 19 13 56 30 82 37 27 8 76 33 109 56 34 23 87
53 118 66 84 36 112 53 159 95 56 51 104 71 157 63 22 -4 49 -11 58 -15 12 -7
18 -4 21 9 3 9 15 55 27 102 12 47 32 106 46 133 13 26 24 59 24 74 l0 26 -23
-21 c-13 -12 -26 -22 -29 -22 -12 0 -18 68 -12 143 6 64 11 83 28 96 12 9 68
65 125 124 58 60 117 117 132 128 15 10 76 35 135 54 l109 34 482 -2 c265 -1
485 -6 490 -10z m3358 -267 c-2 -11 -15 -32 -29 -47 -14 -15 -26 -32 -26 -38
0 -5 -37 -48 -81 -95 -60 -63 -90 -105 -116 -160 -19 -41 -50 -106 -68 -145
-18 -38 -36 -81 -40 -95 -4 -14 -15 -38 -24 -55 -8 -16 -25 -61 -37 -100 -13
-43 -26 -70 -35 -70 -30 0 -21 118 11 153 11 12 19 25 18 29 -6 17 55 168 93
234 14 25 32 62 39 83 22 67 225 307 267 317 16 4 29 7 30 8 1 0 0 -8 -2 -19z
m-274 -92 c-7 -24 -18 -52 -24 -63 -64 -118 -159 -326 -182 -395 -19 -60 -31
-78 -42 -66 -15 15 -3 86 25 147 15 35 36 93 46 129 22 81 166 313 184 296 3
-3 0 -25 -7 -48z m487 18 c2 -28 -18 -39 -54 -30 -30 8 -30 17 -1 37 33 23 52
21 55 -7z m-102 -63 c15 -16 15 -18 -12 -40 -34 -27 -30 -23 -86 -88 -24 -27
-54 -66 -68 -85 -13 -19 -28 -39 -32 -45 -41 -51 -126 -190 -181 -300 -104
-204 -185 -436 -222 -630 -24 -126 -33 -134 -31 -28 1 55 6 96 14 105 11 14
24 64 53 203 40 190 147 456 219 547 17 20 30 43 30 50 0 7 18 33 40 57 22 25
40 50 40 57 0 7 4 14 8 16 4 2 34 35 66 73 109 133 126 144 162 108z m-596
-78 c0 -12 -3 -25 -7 -28 -10 -11 -42 -107 -35 -107 3 0 1 -5 -6 -12 -7 -7
-12 -19 -12 -28 0 -27 -21 -41 -36 -25 -21 20 -17 39 21 122 19 42 35 82 35
89 0 7 9 12 20 11 13 -1 20 -8 20 -22z m1269 -21 c12 -15 21 -33 21 -40 0 -8
9 -31 20 -51 11 -21 20 -45 20 -53 0 -16 -102 136 -106 158 -4 21 24 13 45
-14z m-1423 -110 c-6 -21 -9 -24 -21 -14 -19 16 -19 25 2 46 20 20 28 6 19
-32z m57 -309 c14 -24 33 -67 42 -94 9 -28 27 -66 40 -85 21 -31 23 -42 17
-95 -9 -82 -29 -68 -49 34 -8 43 -27 100 -43 129 -41 74 -60 156 -35 156 2 0
14 -20 28 -45z m-2861 -66 c2 -155 -5 -319 -14 -319 -4 0 -8 17 -9 38 0 28 -2
32 -8 17 -7 -17 -9 -14 -13 15 -8 50 3 260 13 254 5 -3 10 10 10 28 1 18 2 38
4 43 1 6 3 14 3 19 1 5 4 7 7 4 3 -3 6 -47 7 -99z m2814 -193 c4 -17 17 -53
29 -81 41 -92 74 -170 80 -192 5 -19 -18 -83 -29 -83 -3 0 -10 17 -16 38 -7
20 -18 51 -26 67 -28 64 -72 183 -88 239 -14 48 -15 60 -4 67 18 11 45 -17 54
-55z m2384 -76 c0 -5 -5 -10 -11 -10 -5 0 -7 5 -4 10 3 6 8 10 11 10 2 0 4 -4
4 -10z m-46 -19 c3 -5 -15 -22 -41 -37 -27 -15 -64 -40 -83 -56 -19 -15 -39
-28 -44 -28 -5 0 -18 -7 -28 -17 -10 -9 -18 -12 -18 -6 0 14 22 32 119 97 94
62 88 59 95 47z m686 -61 c0 -5 -6 -10 -14 -10 -8 0 -16 -3 -18 -7 -1 -5 -25
-19 -53 -32 -27 -13 -59 -34 -71 -46 -11 -12 -32 -25 -47 -29 -15 -3 -27 -11
-27 -16 0 -6 -7 -10 -15 -10 -9 0 -18 -7 -21 -15 -4 -8 -15 -15 -25 -15 -11 0
-22 -7 -25 -15 -4 -8 -12 -15 -20 -15 -8 0 -14 -4 -14 -10 0 -14 -60 -43 -100
-47 -20 -2 -31 0 -25 5 18 15 179 128 250 176 39 25 85 58 104 71 35 26 121
36 121 15z m-990 -157 c0 -5 -37 -46 -81 -93 -45 -47 -111 -123 -147 -170 -85
-110 -80 -106 -87 -88 -8 20 221 297 274 334 39 27 41 27 41 17z m-4979 -60
c1 -10 1 -24 0 -31 -1 -7 3 -11 10 -10 23 5 153 -339 147 -390 -2 -20 -14 2
-47 88 -25 63 -64 158 -86 210 -53 119 -61 150 -40 150 8 0 16 -8 16 -17z
m5459 -83 c-6 -11 -15 -20 -20 -20 -5 0 -16 -7 -25 -16 -12 -12 -13 -19 -4
-30 9 -12 5 -14 -25 -14 -24 0 -35 4 -31 11 4 6 14 8 22 5 8 -3 12 -2 8 3 -3
5 14 25 37 45 50 42 52 42 38 16z m-120 -100 c0 -5 -4 -10 -10 -10 -5 0 -10 5
-10 10 0 6 5 10 10 10 6 0 10 -4 10 -10z m-2320 -343 c0 -7 -7 -22 -15 -33
-12 -16 -14 -17 -15 -3 0 9 -8 20 -17 23 -15 6 -15 8 -3 16 22 14 50 12 50 -3z
m1643 -166 c-9 -12 -22 -21 -27 -21 -5 0 1 11 14 25 28 30 39 26 13 -4z
m-2529 -202 c-3 -5 0 -8 7 -7 8 2 14 -7 15 -19 2 -27 -2 -28 -22 -9 -16 16
-19 61 -4 51 6 -4 8 -11 4 -16z m30 -121 c-6 -9 -3 -9 9 0 14 12 18 9 32 -23
8 -21 15 -42 15 -47 0 -6 15 -56 34 -112 41 -123 50 -162 40 -177 -4 -7 -17
21 -31 66 -12 43 -28 82 -33 85 -13 8 -80 202 -73 212 2 5 6 8 9 8 3 0 2 -6
-2 -12z m3676 -1448 c0 -13 -29 -32 -40 -25 -16 10 7 45 25 39 8 -4 15 -10 15
-14z m-6650 -126 c0 -8 -5 -12 -10 -9 -6 4 -8 11 -5 16 9 14 15 11 15 -7z
m8779 -13 c10 -10 52 -34 92 -54 41 -20 90 -46 109 -59 19 -12 38 -22 42 -23
3 0 10 -3 14 -7 12 -13 -16 -9 -49 6 -18 8 -66 28 -108 45 -63 26 -149 87
-149 106 0 12 32 3 49 -14z m-3123 -83 c-9 -5 -24 -7 -33 -4 -12 5 -13 9 -3
21 9 11 17 12 33 4 19 -11 19 -12 3 -21z m954 22 c0 -5 -12 -10 -27 -10 -22 0
-25 2 -13 10 20 13 40 13 40 0z m93 -7 c-7 -2 -19 -2 -25 0 -7 3 -2 5 12 5 14
0 19 -2 13 -5z m-655 -34 c29 -11 28 -25 -3 -33 -36 -9 -175 27 -175 46 0 9
145 -1 178 -13z m957 -89 c9 -28 20 -48 25 -45 5 3 10 2 12 -3 1 -4 20 -18 41
-31 41 -25 46 -42 20 -68 -15 -15 -17 -28 -12 -73 4 -30 11 -67 17 -81 6 -15
13 -60 17 -100 3 -41 8 -100 11 -131 5 -60 -4 -75 -21 -35 -7 16 -20 23 -47
25 -41 3 -47 12 -23 32 8 7 15 20 15 30 0 10 -7 23 -15 30 -17 14 -21 80 -5
80 6 0 10 -6 10 -12 0 -10 3 -9 9 1 12 18 2 90 -15 118 -8 12 -14 42 -14 66 0
42 -2 44 -62 84 -79 52 -107 63 -166 63 -30 0 -42 3 -34 9 9 5 -1 10 -30 15
-24 4 -45 7 -46 6 -2 -1 -10 7 -19 17 -8 10 -11 11 -7 3 6 -12 4 -13 -7 -2 -7
6 -24 12 -38 12 -19 0 -22 3 -13 12 9 9 33 8 104 -5 51 -9 131 -18 177 -21
l83 -6 -6 24 c-6 23 0 36 15 36 4 0 15 -23 24 -50z m-6818 -42 c39 -57 168
-180 258 -247 64 -48 130 -83 339 -182 187 -89 251 -113 273 -105 20 8 33 -2
26 -19 -6 -18 -43 -20 -43 -3 0 9 -3 9 -11 1 -12 -12 -38 -7 -54 11 -5 7 -62
29 -125 50 -128 42 -333 141 -395 190 -22 18 -71 54 -110 81 -129 91 -283 253
-255 270 6 4 7 11 4 17 -4 7 -2 8 4 4 7 -4 12 -2 12 4 0 21 39 -15 77 -72z
m6393 56 c0 -8 7 -14 16 -14 8 0 12 -4 9 -10 -13 -21 -128 -2 -147 25 -11 16
7 20 66 17 40 -3 56 -8 56 -18z m-6389 -325 c30 -20 68 -44 84 -54 55 -34 230
-122 256 -128 15 -4 48 -22 75 -40 51 -35 55 -37 79 -37 8 0 15 -5 15 -11 0
-17 -76 -4 -127 21 -23 11 -46 20 -51 20 -22 0 -240 125 -337 195 -117 83
-259 210 -287 257 -44 71 -9 51 110 -63 71 -68 153 -140 183 -160z m6013 275
c56 -8 61 -30 9 -38 -164 -24 -212 -16 -135 23 42 21 60 24 126 15z m2846
-161 c103 -107 130 -140 123 -147 -4 -3 -53 40 -109 96 -57 56 -107 104 -112
107 -12 9 -42 54 -42 64 0 16 55 -31 140 -120z m-2470 84 c14 -3 28 -5 33 -6
4 0 7 -13 7 -27 0 -26 1 -26 -60 -8 -14 4 -54 12 -89 18 -36 6 -66 17 -69 24
-3 10 14 11 75 8 43 -3 89 -7 103 -9z m106 -27 c20 -8 24 -14 16 -22 -6 -6 -8
-16 -5 -24 4 -10 -2 -10 -31 -2 -28 9 -35 16 -34 35 3 25 13 28 54 13z m-6903
-69 c63 -58 254 -183 375 -247 276 -145 320 -164 390 -168 82 -5 77 -3 62 -21
-14 -16 -99 -21 -115 -6 -6 5 -35 16 -65 26 -30 10 -100 40 -155 68 -55 28
-122 61 -150 75 -106 52 -395 274 -395 305 0 13 10 7 53 -32z m9042 -2 c12
-18 -3 -22 -20 -6 -8 9 -24 19 -35 22 -11 4 -18 11 -15 16 7 10 59 -14 70 -32z
m-2348 5 c68 -23 79 -34 51 -49 -19 -10 -30 -8 -63 8 -42 21 -57 36 -49 49 7
10 6 11 61 -8z m-6872 -78 c118 -104 111 -96 92 -96 -9 0 -41 21 -70 48 -30
26 -68 59 -85 74 -18 14 -32 31 -32 38 0 15 14 6 95 -64z m7235 56 c0 -4 10
-12 23 -17 23 -11 38 -65 17 -65 -6 0 -8 5 -4 12 5 7 3 8 -5 3 -8 -5 -24 5
-43 25 -23 25 -26 35 -16 41 16 11 28 11 28 1z m2050 -47 c26 -27 30 -35 16
-35 -9 0 -15 4 -12 9 3 5 -4 11 -16 14 -12 4 -19 9 -15 13 4 4 -1 13 -11 20
-9 7 -12 14 -6 14 5 0 25 -16 44 -35z m-3050 15 c0 -5 -4 -10 -10 -10 -5 0
-10 5 -10 10 0 6 5 10 10 10 6 0 10 -4 10 -10z m-6084 -144 c10 -8 16 -17 12
-21 -8 -8 -48 13 -48 25 0 14 13 12 36 -4z m144 -90 c47 -25 60 -37 48 -41
-26 -10 -133 48 -122 66 7 12 1 14 74 -25z m1044 -145 c6 -9 -15 -19 -107 -49
-32 -11 -57 -23 -57 -27 1 -5 -18 -17 -42 -26 -45 -19 -98 -25 -98 -11 0 15
73 56 96 54 13 -1 27 6 32 15 20 35 160 70 176 44z m80 -127 c9 -25 7 -32 -16
-53 -14 -13 -26 -17 -36 -12 -24 13 -132 -18 -132 -39 0 -5 -9 -10 -20 -10
-13 0 -20 7 -20 20 0 11 5 20 10 20 6 0 10 5 10 11 0 46 188 105 204 63z
m-260 -110 c3 -8 2 -12 -3 -9 -5 3 -12 1 -16 -5 -3 -5 -11 -10 -16 -10 -6 0
-8 4 -5 9 4 5 0 12 -6 15 -7 4 -3 4 10 2 12 -2 22 0 22 5 0 14 7 11 14 -7z
m6116 -889 c7 -9 8 -15 2 -15 -5 0 -12 7 -16 15 -3 8 -4 15 -2 15 2 0 9 -7 16
-15z m-345 -26 c-3 -3 4 -14 15 -24 11 -10 20 -23 20 -29 0 -6 9 -22 20 -36
11 -14 20 -32 20 -40 0 -8 -10 0 -22 18 -13 19 -38 52 -55 74 -39 47 -39 47
-14 45 11 0 18 -4 16 -8z m125 -184 c0 -9 7 -18 15 -21 8 -4 15 -15 15 -25 0
-11 22 -43 49 -72 28 -28 61 -68 74 -88 53 -78 73 -201 41 -247 -20 -29 -36
-19 -24 14 28 73 1 142 -133 346 -50 75 -64 108 -46 108 5 0 9 -7 9 -15z
m3525 -19 c185 -2 189 -3 260 -97 59 -78 60 -110 4 -173 -63 -70 -122 -93
-258 -102 -103 -6 -117 -9 -137 -31 -21 -22 -44 -113 -44 -171 0 -12 -9 -45
-20 -74 -26 -68 -26 -94 0 -101 15 -4 20 -14 20 -36 0 -18 -5 -31 -12 -31 -10
0 -10 -2 0 -9 10 -6 10 -10 -3 -21 -18 -15 -17 -16 -20 33 -3 46 -13 58 -27
32 -6 -11 -57 -66 -112 -121 -108 -109 -153 -165 -207 -257 -64 -108 -69 -121
-69 -175 0 -51 -2 -56 -52 -106 -29 -29 -67 -61 -84 -69 -18 -9 -46 -35 -64
-57 -42 -54 -105 -96 -175 -117 -42 -13 -61 -25 -71 -45 -19 -37 -18 -54 10
-91 31 -43 38 -65 22 -74 -7 -5 -21 -20 -31 -35 -24 -39 -121 -95 -175 -102
-25 -3 -148 -8 -273 -11 -126 -2 -233 -7 -238 -11 -5 -3 -107 -10 -227 -14
-119 -5 -241 -14 -270 -19 -31 -6 -266 -11 -573 -11 -567 -1 -540 -4 -566 57
-17 43 -17 73 3 94 14 15 26 17 73 13 46 -5 70 -2 127 19 96 34 142 68 186
133 20 31 47 67 60 81 31 35 153 89 230 103 75 14 92 22 138 65 26 25 50 36
93 44 32 6 104 30 160 54 56 25 121 47 144 51 24 3 67 17 95 30 29 13 68 27
86 31 18 4 74 34 125 67 111 74 279 156 327 160 25 2 36 9 40 24 6 25 104 132
170 186 102 82 190 176 212 225 13 27 36 62 51 77 15 15 34 41 43 59 9 18 28
44 42 59 l26 28 -25 26 -24 27 34 -7 c21 -4 58 0 95 11 64 18 110 56 204 171
24 29 67 70 95 92 100 75 283 135 377 123 25 -3 117 -6 205 -7z m-4612 -107
c38 -75 65 -138 74 -174 4 -17 -1 -20 -25 -21 -27 -1 -30 2 -50 65 -11 36 -27
95 -34 131 -7 36 -17 69 -23 73 -6 5 -4 7 5 5 8 -3 32 -38 53 -79z m-2042 20
c-10 -28 -51 -68 -51 -51 0 7 5 12 10 12 6 0 10 5 10 11 0 11 33 59 38 54 1
-1 -2 -13 -7 -26z m-57 -81 c-4 -7 -18 -24 -30 -38 -13 -14 -32 -36 -43 -50
l-20 -25 -1 26 c0 20 6 28 25 33 14 4 25 10 25 14 0 9 38 52 46 52 3 0 2 -6
-2 -12z m-104 -114 c0 -11 -55 -82 -72 -93 -15 -10 -18 -8 -18 13 0 35 10 56
26 56 8 0 14 4 14 9 0 5 8 12 18 14 27 7 32 7 32 1z m2241 -47 c-1 -12 -15 -9
-19 4 -3 6 1 10 8 8 6 -3 11 -8 11 -12z m49 3 c0 -5 -7 -10 -16 -10 -8 0 -12
5 -9 10 3 6 10 10 16 10 5 0 9 -4 9 -10z m-2517 -197 c7 -6 -50 -53 -65 -53
-13 0 -9 19 9 40 17 20 44 26 56 13z m4778 -34 c6 -13 6 -19 -1 -19 -14 0 -13
-33 2 -48 9 -9 9 -12 -1 -12 -7 0 -9 -4 -6 -10 7 -11 -18 -13 -53 -3 -21 5
-23 10 -17 42 10 57 16 72 26 66 5 -4 9 -2 9 4 0 16 29 1 41 -20z m-2970 -56
c12 -32 12 -90 -1 -98 -5 -3 -10 3 -10 15 0 12 -13 35 -29 51 -16 16 -24 29
-18 30 8 0 8 2 0 6 -19 7 -16 21 5 25 27 6 43 -2 53 -29z m-158 -218 c16 5 59
-50 62 -80 5 -43 16 -64 46 -90 43 -35 80 -33 97 5 8 17 17 30 21 30 3 0 6
-105 6 -232 0 -128 -1 -223 -3 -210 -2 12 -9 22 -17 22 -22 0 -116 138 -160
235 -57 126 -64 137 -81 131 -12 -5 -14 12 -10 112 5 143 6 145 17 105 5 -18
15 -30 22 -28z m-1582 -14 c-11 -20 -41 -47 -41 -36 0 4 8 20 17 35 18 31 40
31 24 1z m-61 -89 c0 -13 -36 -43 -43 -36 -9 9 16 44 30 44 7 0 13 -4 13 -8z
m-200 -231 c-6 -12 -15 -21 -21 -21 -10 0 -5 13 14 38 15 19 20 7 7 -17z
m-1800 -77 c0 -29 -26 -32 -46 -6 -18 23 -17 30 4 34 28 7 42 -3 42 -28z
m6690 -126 c0 -11 -8 -18 -20 -18 -13 0 -18 5 -15 15 16 51 16 50 25 35 6 -8
10 -23 10 -32z m-600 16 c0 -2 -14 -4 -31 -4 -16 0 -28 4 -25 9 5 8 56 3 56
-5z m-4566 -66 c-134 -106 -308 -213 -326 -202 -17 11 -6 22 35 39 38 15 211
126 282 181 17 13 32 19 33 13 2 -5 -8 -19 -24 -31z m3359 -77 c-16 -14 -51
-44 -79 -66 -27 -21 -85 -74 -129 -117 -103 -100 -135 -124 -135 -105 0 8 17
30 38 47 20 18 80 74 133 125 52 51 110 100 127 109 18 9 32 23 32 31 0 16 33
25 39 11 2 -5 -9 -21 -26 -35z m-875 -623 c-3 -8 -27 -14 -59 -16 -50 -3 -53
-2 -34 12 25 19 99 22 93 4z m-826 -55 c3 -35 -2 -43 -63 -103 -36 -36 -95
-81 -130 -99 -35 -19 -77 -44 -94 -56 -93 -69 -238 -113 -281 -86 -18 11 -18
11 1 9 16 -2 20 2 18 22 -1 14 0 19 3 13 7 -15 34 -18 34 -4 0 5 14 12 30 16
31 7 39 20 18 27 -7 3 15 10 48 17 42 8 79 24 118 51 31 22 63 40 69 40 11 0
114 91 197 173 23 23 29 20 32 -20z m158 -60 c0 -13 -34 -58 -67 -91 -92 -88
-117 -54 -30 40 34 38 60 58 75 58 12 0 22 -3 22 -7z m200 -571 c0 -4 -15 -23
-34 -42 -18 -19 -45 -57 -60 -85 -61 -114 -78 -137 -90 -125 -12 12 17 69 86
172 44 66 98 110 98 80z"/>
        <path d="M7086 11581 c-16 -26 -13 -60 5 -66 10 -4 18 -11 16 -18 -3 -14 41
-18 50 -4 3 6 1 7 -4 4 -10 -7 -28 20 -25 36 1 4 -3 7 -9 7 -5 0 -8 4 -5 9 3
4 -1 16 -8 26 -9 13 -15 15 -20 6z"/>
        <path d="M7176 11493 c-6 -14 -5 -15 5 -6 7 7 10 15 7 18 -3 3 -9 -2 -12 -12z"/>
        <path d="M7217 11410 c-4 -20 -11 -30 -15 -24 -9 15 -64 15 -59 1 5 -15 66
-16 78 -1 6 7 9 23 7 36 -3 19 -5 17 -11 -12z"/>
        <path d="M8132 10522 c-9 -6 -4 -14 18 -30 38 -28 40 -28 40 8 0 24 -4 30 -22
30 -13 0 -29 -4 -36 -8z"/>
        <path d="M6870 10316 c0 -14 -4 -28 -10 -31 -5 -3 -10 -10 -10 -15 0 -11 101
-1 118 13 19 15 14 27 -11 27 -13 0 -32 7 -43 15 -28 21 -44 18 -44 -9z"/>
        <path d="M7114 10278 c27 -63 58 -118 68 -118 8 0 58 52 58 60 0 18 -90 99
-117 104 l-31 7 22 -53z"/>
        <path d="M6960 10164 c-25 -30 -21 -44 14 -44 30 0 33 3 32 27 -1 32 -26 42
-46 17z"/>
        <path d="M6790 10062 c0 -29 11 -53 21 -46 14 8 11 40 -6 54 -12 10 -15 9 -15
-8z"/>
        <path d="M9245 9678 c-9 -61 -2 -131 13 -136 10 -3 13 14 10 77 -3 96 -13 123
-23 59z"/>
        <path d="M9340 9425 c0 -15 4 -24 10 -20 6 3 10 12 10 20 0 8 -4 17 -10 20 -6
4 -10 -5 -10 -20z"/>
        <path d="M6054 9280 c-50 -25 -75 -64 -53 -85 23 -22 53 -22 63 1 5 11 22 28
38 37 21 12 29 23 26 39 -4 30 -25 32 -74 8z"/>
        <path d="M6250 9200 c0 -5 5 -10 10 -10 6 0 10 5 10 10 0 6 -4 10 -10 10 -5 0
-10 -4 -10 -10z"/>
        <path d="M6045 9120 c-7 -12 17 -59 41 -82 24 -21 74 -41 74 -28 0 5 -5 12
-10 15 -6 4 -8 10 -5 14 6 11 -64 91 -80 91 -8 0 -17 -4 -20 -10z"/>
        <path d="M9377 8548 c38 -61 74 -98 94 -98 46 0 -9 93 -75 125 -45 23 -48 18
-19 -27z"/>
        <path d="M5842 8453 c-6 -2 -10 -9 -6 -14 3 -5 0 -9 -5 -9 -6 0 -11 -12 -11
-26 0 -22 3 -24 14 -15 16 13 39 71 28 70 -4 0 -13 -3 -20 -6z"/>
        <path d="M9461 8384 c-25 -18 -19 -34 13 -34 15 0 26 7 29 19 6 26 -15 33 -42
15z"/>
        <path d="M9385 8314 c-17 -13 -18 -16 -5 -24 32 -21 52 -4 32 27 -5 8 -12 8
-27 -3z"/>
        <path d="M9625 7744 c8 -22 23 -45 32 -51 9 -7 13 -13 9 -13 -5 0 4 -10 20
-22 45 -36 62 -55 66 -75 2 -10 8 -18 13 -18 6 0 16 -4 24 -9 11 -7 10 -11 -6
-20 -15 -8 -18 -16 -12 -31 5 -13 8 -15 8 -5 1 12 3 12 10 2 7 -12 11 -12 22
0 14 15 23 12 56 -23 18 -20 53 -13 54 10 0 12 2 11 9 -4 7 -16 9 -17 9 -3 1
9 -10 25 -24 36 -14 11 -25 25 -25 32 0 6 -4 8 -10 5 -5 -3 -10 -1 -10 5 0 10
-37 30 -68 36 -30 6 -42 14 -42 29 0 11 8 15 28 13 24 -3 27 0 24 22 -2 14 -8
30 -13 36 -12 15 -126 71 -162 80 l-28 6 16 -38z"/>
        <path d="M8483 7725 c-18 -44 -20 -67 -6 -72 13 -5 27 52 21 84 -3 14 -6 12
-15 -12z"/>
        <path d="M7188 7710 c-7 -11 -18 -20 -25 -20 -12 0 -84 -31 -93 -40 -10 -10
-46 -31 -90 -51 -58 -27 -129 -35 -183 -20 -78 22 -218 -31 -302 -114 -25 -25
-147 -115 -156 -115 -4 0 -9 -6 -12 -14 -4 -10 13 -6 54 14 34 16 63 31 67 34
15 15 42 3 60 -28 35 -59 61 -69 187 -74 67 -3 126 0 144 6 35 12 50 0 31 -23
-26 -32 9 -12 71 38 72 60 112 107 186 217 65 97 84 135 77 153 -3 8 2 21 10
30 20 20 20 27 1 27 -8 0 -20 -9 -27 -20z"/>
        <path d="M6779 7631 c-11 -13 -17 -26 -14 -29 4 -4 75 44 75 51 0 2 -9 3 -21
3 -11 0 -30 -11 -40 -25z"/>
        <path d="M9632 7651 c-9 -5 -6 -15 13 -35 14 -15 25 -23 25 -19 0 4 5 1 10 -7
8 -12 10 -12 10 5 0 33 -37 69 -58 56z"/>
        <path d="M8561 7444 c0 -11 3 -14 6 -6 3 7 2 16 -1 19 -3 4 -6 -2 -5 -13z"/>
        <path d="M9873 7425 c-6 -14 -7 -25 -2 -25 4 0 15 -12 23 -27 8 -16 15 -23 16
-18 0 6 5 3 10 -5 8 -13 10 -13 10 2 0 9 -11 28 -24 41 -17 18 -21 28 -14 40
5 10 5 17 1 17 -4 0 -13 -11 -20 -25z"/>
        <path d="M8355 7380 c-3 -5 -1 -28 6 -50 9 -28 18 -40 31 -40 22 0 23 19 4 65
-15 35 -29 44 -41 25z"/>
        <path d="M8541 7311 c-11 -7 -8 -12 12 -25 42 -28 161 -15 131 14 -14 12 -127
22 -143 11z"/>
        <path d="M6810 7214 c0 -14 3 -15 18 -3 9 7 19 15 21 16 2 2 -5 3 -17 3 -14 0
-22 -6 -22 -16z"/>
        <path d="M6473 7184 c-13 -15 -28 -22 -37 -18 -13 5 -15 0 -10 -27 10 -53 21
-67 70 -89 61 -26 68 -26 142 12 60 31 62 33 59 68 -2 34 -3 35 -68 51 -121
29 -132 30 -156 3z"/>
        <path d="M6750 7169 c-17 -17 -28 -34 -25 -37 3 -3 22 11 43 31 20 20 31 37
25 37 -6 0 -26 -14 -43 -31z"/>
        <path d="M6686 6919 c-14 -17 -26 -34 -26 -39 0 -12 -44 -54 -124 -120 -53
-43 -67 -60 -65 -80 2 -42 -1 -64 -11 -80 -9 -13 -11 -13 -21 0 -8 11 -12 12
-16 2 -2 -6 -10 -9 -16 -5 -7 3 -9 3 -5 -2 5 -5 -3 -23 -17 -41 -14 -18 -25
-37 -25 -43 0 -5 -8 -15 -17 -20 -10 -6 -13 -11 -6 -11 7 0 10 -7 7 -15 -10
-25 2 -17 48 29 84 84 126 134 133 155 3 12 25 41 48 64 23 24 61 67 85 95 24
29 51 52 62 52 10 0 21 4 24 8 7 12 -13 82 -24 82 -4 0 -20 -14 -34 -31z"/>
        <path d="M6430 6681 c0 -25 6 -27 13 -6 4 8 2 17 -3 20 -6 4 -10 -3 -10 -14z"/>
        <path d="M6222 6554 c-6 -11 -17 -15 -31 -11 -11 3 -19 2 -16 -3 3 -4 -9 -13
-25 -20 -30 -12 -55 -35 -27 -24 8 3 18 1 21 -5 4 -6 18 -6 36 -1 17 5 34 9
38 9 4 1 7 7 7 14 0 6 5 12 12 12 20 0 27 15 7 16 -10 0 -13 3 -6 6 6 2 12 9
12 14 0 15 -18 10 -28 -7z"/>
        <path d="M2971 12394 c0 -11 3 -14 6 -6 3 7 2 16 -1 19 -3 4 -6 -2 -5 -13z"/>
    </g>
</svg>
