<?xml version="1.0" encoding="UTF-8" standalone="no"?>
<!DOCTYPE svg PUBLIC "-//W3C//DTD SVG 1.1//EN" "http://www.w3.org/Graphics/SVG/1.1/DTD/svg11.dtd">
<svg height="100%" style="fill-rule:nonzero;clip-rule:evenodd;stroke-linecap:round;stroke-linejoin:round;"
     xmlns:xlink="http://www.w3.org/1999/xlink" xmlns="http://www.w3.org/2000/svg" xml:space="preserve" width="48" hight="48"
     version="1.1" viewBox="0 0 24 24">

<defs/>
    <g id="Tweb">
<path d="M8+11L9.49582+21L9.81337+21L11.0084+12.0445L12.1866+21L12.5042+21L14+11L13.6407+11L12.3454+19.9555L11.1671+11L10.8329+11L9.6546+19.9555L8.35933+11L8+11Z"
      opacity="1" fill="#1E90FF"/>
        <path d="M15.4915+13C14.8814+13+14.3983+13.3963+14.0254+14.2037C13.6695+14.967+13.5+15.8917+13.5+16.9927C13.5+18.1817+13.678+19.1505+14.0508+19.8991C14.4068+20.633+14.8898+21+15.5+21C16.0424+21+16.4831+20.7211+16.8305+20.178C17.1102+19.7083+17.3051+19.1064+17.4068+18.3578L17.0593+18.3578C16.9576+19.0037+16.7881+19.5028+16.5678+19.855C16.2966+20.2661+15.9407+20.4862+15.5+20.4862C15.0085+20.4862+14.6102+20.178+14.3051+19.5761C14.0085+18.989+13.8559+18.1817+13.839+17.1835L17.5+17.1835C17.4661+15.8917+17.3051+14.8936+17.0169+14.2037C16.678+13.3963+16.1695+13+15.4915+13ZM15.5193+13.5138C16.546+13.5138+17.1022+14.5706+17.1963+16.6844L13.8423+16.6844C13.8765+15.7743+14.039+15.011+14.3385+14.4092C14.638+13.8073+15.0316+13.5138+15.5193+13.5138Z"
              opacity="1" fill="#1E90FF"/>
        <path d="M18+7L18+20.7736L18.3231+20.7736L18.3231+18.8167C18.6288+20.2722+19.1878+21+20+21C20.6463+21+21.1441+20.5472+21.5109+19.6577C21.8341+18.8491+22+17.8302+22+16.6011C22+15.372+21.8341+14.3531+21.5022+13.5445C21.1354+12.6388+20.6376+12.186+20.0087+12.186C19.2052+12.186+18.655+12.9299+18.3406+14.434L18.3406+7L18+7ZM19.9738+12.752C20.5153+12.752+20.9345+13.124+21.2402+13.9003C21.5197+14.5795+21.6594+15.4852+21.6594+16.6011C21.6594+17.7008+21.5197+18.6065+21.2489+19.3019C20.9432+20.0458+20.524+20.434+19.9825+20.434C19.441+20.434+19.0306+20.062+18.7424+19.3342C18.4629+18.655+18.3319+17.7978+18.3319+16.7305L18.3319+16.5202C18.3319+15.4367+18.4716+14.5472+18.7511+13.8518C19.048+13.1078+19.4498+12.752+19.9738+12.752Z"
              opacity="1" fill="#1E90FF"/>
        <path d="M7.0565+7.84814C7.06277+8.02006+7.06591+8.18338+7.06591+8.33811C7.06591+8.49284+7.06591+8.64756+7.06591+8.80229C7.06591+9.47278+7.00785+10.1132+6.89171+10.7235C6.77558+11.3338+6.61237+11.8754+6.40207+12.3481C6.19178+12.8209+5.94225+13.1948+5.65348+13.4699C5.36472+13.745+5.04771+13.8825+4.70245+13.8825C4.1877+13.8825+3.8032+13.5645+3.54896+12.9284C3.29473+12.2923+3.16761+11.467+3.16761+10.4527C3.16761+9.62751+3.26962+8.7765+3.47363+7.89971C3.67765+7.02292+4.01507+6.2235+4.48588+5.50143C4.95669+4.77937+5.57815+4.18195+6.35028+3.70917C7.12241+3.23639+8.07972+3+9.22222+3C9.57376+3+9.89391+3.02579+10.1827+3.07736C10.4714+3.12894+11.1527+3.19532+11.3598+3.19532C11.3969+3.19532+12.0775+3.21277+12.6406+3.21063C14.8423+3.20227+16.6739+3.20271+17.3832+3.07736C17.6669+3.02724+18.6112+2.99181+18.6987+3C19.4435+3.0697+19.5955+3.15533+19.7132+3.23729C19.9146+3.37758+20+3.50716+20+3.74785C20+3.90258+19.9506+3.98189+19.7204+4.1042C19.4075+4.27041+19.2619+4.23877+18.7646+4.31519C18.6713+4.32952+17.559+4.37106+17.4115+4.37966C17.2828+4.38715+14.3274+4.34101+12.5833+4.34916C11.8126+4.35276+10.8801+4.39255+10.8512+4.39255C10.4118+4.39255+10.0461+4.60315+9.75424+5.02436C9.46234+5.44556+9.19083+6.08166+8.93974+6.93266C8.68864+7.78367+8.42812+8.84957+8.15819+10.1304C7.88826+11.4112+7.55242+12.9026+7.15066+14.6046C7.01255+15.1891+6.83836+15.851+6.62806+16.5903C6.41777+17.3295+6.16824+18.0258+5.87947+18.6791C5.59071+19.3324+5.26114+19.8825+4.89077+20.3295C4.5204+20.7765+4.10295+21+3.63842+21C3.46265+21+3.27746+20.9441+3.08286+20.8324C2.88826+20.7206+2.71092+20.5401+2.55085+20.2908C2.39077+20.0415+2.25895+19.7106+2.15537+19.298C2.05179+18.8854+2+18.3782+2+17.7765C2+17.3983+2.03923+17.0759+2.1177+16.8095C2.19617+16.543+2.3076+16.4097+2.45198+16.4097C2.55242+16.4097+2.63559+16.5+2.70151+16.6805C2.76742+16.861+2.80038+17.0888+2.80038+17.3639C2.80038+17.6218+2.76899+17.8281+2.70621+17.9828C2.64344+18.1375+2.57125+18.2149+2.48964+18.2149C2.4457+18.2149+2.40804+18.1977+2.37665+18.1633C2.40804+18.9885+2.54928+19.616+2.80038+20.0458C3.05148+20.4756+3.36221+20.6905+3.73258+20.6905C4.08412+20.6905+4.40741+20.4756+4.70245+20.0458C4.99749+19.616+5.27213+19.0487+5.52637+18.3438C5.7806+17.639+6.02072+16.8352+6.2467+15.9327C6.47269+15.0301+6.69711+14.0931+6.91996+13.1218C7.14281+12.1504+7.36723+11.1877+7.59322+10.2335C7.81921+9.27937+8.05775+8.40688+8.30885+7.61605C8.55995+6.82521+8.82831+6.15043+9.11394+5.59169C9.39956+5.03295+9.715+4.66762+10.0603+4.4957L10.0603+4.44413C9.77778+4.44413+9.47018+4.40974+9.13748+4.34097C8.80477+4.27221+8.49718+4.23782+8.21469+4.23782C7.42373+4.23782+6.72222+4.39685+6.11017+4.7149C5.49812+5.03295+4.9818+5.47135+4.56121+6.03009C4.14062+6.58883+3.82203+7.24642+3.60546+8.00287C3.38889+8.75931+3.2806+9.57593+3.2806+10.4527C3.2806+11.4842+3.40772+12.2622+3.66196+12.7865C3.9162+13.3109+4.27558+13.5731+4.74011+13.5731C5.06654+13.5731+5.36472+13.4398+5.63465+13.1734C5.90458+12.9069+6.13685+12.5544+6.33145+12.116C6.52605+11.6777+6.67828+11.1748+6.78814+10.6074C6.89799+10.0401+6.95292+9.45559+6.95292+8.85387C6.95292+8.68195+6.95292+8.51862+6.95292+8.3639C6.95292+8.19198+6.94978+8.02006+6.9435+7.84814L7.0565+7.84814Z"
              opacity="1" fill="#1E90FF"/>
</g>
</svg>
